HIERARCHY
ROOT Hips
{
	OFFSET -3.958830 18.904000 13.208200
	CHANNELS 6 Xposition Yposition Zposition Zrotation Yrotation Xrotation 
	JOINT LHipJoint
	{
		OFFSET 0.000000 0.000000 0.000000
		CHANNELS 3 Zrotation Yrotation Xrotation
		JOINT LeftUpLeg
		{
			OFFSET 1.800000 -1.400000 0.085000
			CHANNELS 3 Zrotation Yrotation Xrotation
			JOINT LeftLeg
			{
				OFFSET 2.215000 -6.000000 0.000000
				CHANNELS 3 Zrotation Yrotation Xrotation
				JOINT LeftFoot
				{
					OFFSET 2.500000 -6.900000 0.000000
					CHANNELS 3 Zrotation Yrotation Xrotation
					JOINT LeftToeBase
					{
						OFFSET 0.200000 -0.500000 1.950000
						CHANNELS 3 Zrotation Yrotation Xrotation
						End Site
						{
							OFFSET 0.000000 0.000000 0.000000
						}
					}
				}
			}
		}
	}
	JOINT RHipJoint
	{
		OFFSET 0.000000 0.000000 0.000000
		CHANNELS 3 Zrotation Yrotation Xrotation
		JOINT RightUpLeg
		{
			OFFSET -1.800000 -1.400000 0.085000
			CHANNELS 3 Zrotation Yrotation Xrotation
			JOINT RightLeg
			{
				OFFSET -2.215000 -6.000000 0.000000
				CHANNELS 3 Zrotation Yrotation Xrotation
				JOINT RightFoot
				{
					OFFSET -2.500000 -6.900000 0.000000
					CHANNELS 3 Zrotation Yrotation Xrotation
					JOINT RightToeBase
					{
						OFFSET -0.200000 -0.500000 1.950000
						CHANNELS 3 Zrotation Yrotation Xrotation
						End Site
						{
							OFFSET 0.000000 0.000000 0.000000
						}
					}
				}
			}
		}
	}
	JOINT LowerBack
	{
		OFFSET 0.000000 0.000000 0.000000
		CHANNELS 3 Zrotation Yrotation Xrotation
		JOINT Spine
		{
			OFFSET -0.087000 1.940000 -0.288900
			CHANNELS 3 Zrotation Yrotation Xrotation
			JOINT Spine1
			{
				OFFSET 0.000000 1.950000 0.060000
				CHANNELS 3 Zrotation Yrotation Xrotation
				JOINT Neck
				{
					OFFSET 0.000000 0.000000 0.000000
					CHANNELS 3 Zrotation Yrotation Xrotation
					JOINT Neck1
					{
						OFFSET 0.000000 1.600000 0.340000
						CHANNELS 3 Zrotation Yrotation Xrotation
						JOINT Head
						{
							OFFSET 0.000000 1.667000 -0.240000
							CHANNELS 3 Zrotation Yrotation Xrotation
							End Site
							{
								OFFSET 0.000000 0.000000 0.000000
							}
						}
					}
				}
				JOINT LeftShoulder
				{
					OFFSET 0.000000 0.000000 0.000000
					CHANNELS 3 Zrotation Yrotation Xrotation
					JOINT LeftArm
					{
						OFFSET 2.700000 1.550000 -0.730000
						CHANNELS 3 Zrotation Yrotation Xrotation
						JOINT LeftForeArm
						{
							OFFSET 5.450000 0.000000 0.000000
							CHANNELS 3 Zrotation Yrotation Xrotation
							JOINT LeftHand
							{
								OFFSET 3.450000 0.000000 0.000000
								CHANNELS 3 Zrotation Yrotation Xrotation
								JOINT LeftHandIndex1
								{
									OFFSET 0.750000 0.000000 0.000000
									CHANNELS 3 Zrotation Yrotation Xrotation
									End Site
									{
										OFFSET 0.000000 0.000000 0.000000
									}
								}
							}
						}
					}
				}
				JOINT RightShoulder
				{
					OFFSET 0.000000 0.000000 0.000000
					CHANNELS 3 Zrotation Yrotation Xrotation
					JOINT RightArm
					{
						OFFSET -2.700000 1.550000 -0.730000
						CHANNELS 3 Zrotation Yrotation Xrotation
						JOINT RightForeArm
						{
							OFFSET -5.450000 0.000000 0.000000
							CHANNELS 3 Zrotation Yrotation Xrotation
							JOINT RightHand
							{
								OFFSET -3.450000 0.000000 0.000000
								CHANNELS 3 Zrotation Yrotation Xrotation
								JOINT RightHandIndex1
								{
									OFFSET -0.750000 0.000000 0.000000
									CHANNELS 3 Zrotation Yrotation Xrotation
									End Site
									{
										OFFSET 0.000000 0.000000 0.000000
									}
								}
							}
						}
					}
				}
			}
		}
	}
}
MOTION
Frames: 7
Frame Time: 0.016667
0.372880 16.278440 -1.735650 -2.298742 38.775831 3.832304 -15.073440 12.016585 2.923621 9.029665 -2.054946 -23.142891 -6.204093 4.415966 8.724616 -0.781695 3.228940 3.450433 0.247780 -0.111800 0.403890 18.337730 -12.018495 2.584133 -8.436108 -0.097502 -5.626721 3.009882 -4.694944 10.126127 -0.220238 -4.057840 2.971347 0.094660 0.216650 0.199280 -4.750057 1.962937 -7.142342 8.894288 6.570715 3.811698 0.174770 6.153887 9.569256 1.714055 1.382493 -12.589170 3.341315 -1.716830 27.238895 -3.556420 1.332600 -7.008950 -16.330529 -19.433868 8.292143 -54.847810 -3.633540 -5.637589 -21.648365 -20.350401 0.455199 -3.882657 2.999430 0.407690 0.187300 -0.111520 -0.003180 13.407532 22.705103 8.422132 61.631583 14.967627 -2.348398 5.456203 21.514494 -0.982950 2.173833 -1.485887 -0.298470 0.127970 0.043800 -0.277280 
0.415870 16.276260 -1.718210 -2.056498 39.692394 4.284089 -15.117658 12.111506 2.974040 8.560567 -2.205465 -22.939835 -6.193261 4.262066 7.983797 -0.744812 3.162378 3.494484 0.224940 -0.134570 0.350400 18.291839 -11.920191 2.560875 -8.220020 -0.170578 -5.589264 2.756366 -4.598667 10.092583 -0.207122 -3.991801 3.014245 0.068650 0.235470 0.173010 -4.610683 1.576233 -7.140349 7.677193 6.309369 3.882335 1.458103 5.876271 8.804669 0.698598 -0.097366 -12.177544 0.552025 -1.165168 27.897950 -2.323500 0.476680 -6.693160 -14.842391 -17.800755 7.756224 -57.615533 -3.938520 -5.834522 -19.459568 -19.508410 0.059487 -3.849962 2.989243 0.409710 0.160670 -0.123030 0.018330 14.068089 21.911970 8.186719 61.876567 13.163140 -2.277943 5.548982 17.296286 -0.689717 2.250177 -1.449945 -0.299800 0.143940 0.048510 -0.247810 
0.455320 16.274400 -1.702060 -1.898261 40.313546 4.774097 -15.152543 12.203336 3.032033 8.234300 -2.330903 -22.681439 -6.296200 4.118027 7.077538 -0.700248 3.121225 3.531309 0.201360 -0.159220 0.298330 18.255839 -11.818496 2.528302 -7.942598 -0.188843 -5.819348 2.483218 -4.485755 10.212238 -0.184506 -3.904461 3.062814 0.041330 0.262500 0.151620 -4.495893 1.192147 -7.135527 6.758774 5.974604 3.905370 2.546433 5.572890 7.823204 -0.294909 -1.811421 -11.654695 -2.631373 -0.353952 28.280863 -1.068770 -0.302000 -6.346170 -13.511875 -15.564709 7.058184 -60.770789 -4.206372 -5.843293 -16.614409 -18.242494 -0.376921 -3.829194 2.974038 0.404470 0.140300 -0.138100 0.039060 14.803720 20.713494 7.842402 62.151943 11.375146 -2.394936 5.414129 13.627073 -0.477520 2.324381 -1.415973 -0.298570 0.160250 0.054660 -0.214740 
0.489780 16.270270 -1.683930 -1.632536 40.813751 5.571984 -15.189758 12.295264 3.109453 7.854832 -2.497202 -22.632942 -6.457905 3.972593 6.085511 -0.662209 3.090183 3.571354 0.165000 -0.191990 0.227810 18.221020 -11.690815 2.485712 -7.655103 -0.153428 -6.325381 2.200104 -4.332109 10.286208 -0.143765 -3.789848 3.129867 0.017170 0.309210 0.118940 -4.363244 0.756816 -7.118369 5.714672 5.503492 3.864170 3.647972 5.170957 6.292615 -1.395073 -3.662054 -10.897330 -6.044081 0.744427 28.119432 0.385960 -1.032890 -5.930750 -12.368286 -12.274526 6.119201 -64.220949 -4.125891 -5.711387 -13.353376 -16.661860 -0.776191 -3.825250 2.935594 0.393530 0.130080 -0.168060 0.063640 15.868389 18.574407 7.189304 62.246693 9.486147 -2.770355 5.000423 10.862654 -0.363220 2.386264 -1.371698 -0.312060 0.192640 0.068530 -0.178240 
0.522480 16.261050 -1.666680 -1.650499 41.180509 6.455455 -15.209038 12.352795 3.187230 7.643759 -2.675041 -22.849228 -6.526751 3.791096 4.974389 -0.623698 3.071757 3.611476 0.120380 -0.236240 0.149630 18.212795 -11.563528 2.432669 -7.185391 -0.047161 -7.186951 2.002053 -4.191784 10.597517 -0.090904 -3.680702 3.188677 -0.009260 0.374360 0.104360 -4.303719 0.384625 -7.081720 5.368468 4.847387 3.585197 4.094902 4.659661 4.372674 -2.336982 -5.349596 -9.904407 -9.103437 1.887696 27.223111 1.368040 -1.567600 -4.925490 -11.337031 -8.176730 5.077903 -67.342979 -3.583310 -5.511517 -10.383903 -15.147494 -1.056631 -3.856866 2.903379 0.361180 0.144250 -0.211550 0.090690 16.571926 15.472364 6.150813 62.692122 7.919527 -3.106409 4.517323 8.868226 -0.332215 2.440432 -1.346896 -0.322650 0.212840 0.088490 -0.137540 
0.553250 16.253780 -1.652520 -1.681692 41.452086 7.405030 -15.221323 12.402691 3.273765 7.442950 -2.862259 -23.264348 -6.650493 3.653362 4.080956 -0.580459 3.044246 3.645718 0.081800 -0.275430 0.090440 18.207529 -11.453005 2.383978 -6.769722 0.110287 -8.277462 1.880466 -4.068178 11.063911 -0.040331 -3.549839 3.247855 -0.038890 0.416800 0.084830 -4.272949 0.061608 -7.061083 5.402675 4.214551 3.445349 4.104440 4.243793 2.005073 -3.093530 -6.947040 -8.885569 -12.051487 2.933862 26.351447 2.256640 -2.108810 -4.205650 -10.349000 -3.495507 3.970013 -70.148961 -2.630360 -5.353867 -7.520563 -13.824990 -1.262801 -3.882062 2.849182 0.337750 0.142660 -0.241960 0.108980 16.851093 11.796106 5.041532 63.367188 6.313301 -3.791631 4.234540 8.507454 -0.397841 2.488562 -1.312214 -0.328050 0.226680 0.100000 -0.103410 
0.582510 16.250560 -1.636310 -1.471679 41.744257 8.460359 -15.237461 12.446000 3.352826 7.124409 -3.062132 -23.690053 -6.786001 3.539663 3.365115 -0.553487 3.025579 3.677411 0.046320 -0.319330 0.045320 18.198103 -11.355176 2.335852 -6.593483 0.276091 -9.264102 1.825769 -3.993191 11.505867 0.002678 -3.446833 3.301643 -0.069500 0.454040 0.072190 -4.229021 -0.226535 -7.033536 5.372080 3.697942 3.292516 3.700761 3.908094 -0.367274 -3.496149 -8.189131 -7.866132 -14.412673 3.699793 25.498871 2.630390 -2.544140 -3.581530 -9.766066 1.245654 2.813219 -71.875715 -1.513066 -5.208168 -5.199727 -12.957867 -1.394316 -3.919639 2.772057 0.326970 0.147120 -0.267440 0.123980 16.805349 7.846259 3.932455 64.233424 4.794367 -4.645290 4.419244 9.466711 -0.516962 2.510317 -1.271719 -0.338440 0.239830 0.110980 -0.082000 
